# xmcd
#
# Track frame offsets:
#	150
#	16432
#	31190
#	45927
#	60577
#	74367
#	87705
#	104475
#	130467
#	148175
#	162830
#	180117
#	199265
#	215982
#
# Disc length: 3109
#
# Revision: 1
# Processed by: cddbd v1.5.1PL0 Copyright (c) Steve Scherf et al.
# Submitted via: CD-Transfer v1.0
# Normalized: r0:DSETVAR2
#
DISCID=cd0c230e
DTITLE=Various Artist - Maximum Dance Vol. 1999-06
DYEAR=1999
DGENRE=
TTITLE0=Beat Boy - Roof Is On Fire
TTITLE1=Sq 1 - Can You Feel
TTITLE2=Blank and Jones - Cream
TTITLE3=Paffendorf - Allnight
TTITLE4=Kay Cee - Sunshine
TTITLE5=Mythos 'n Dj Cosmo - The Heart Of The Ocean
TTITLE6=Mindsweeper - La Musica
TTITLE7=Candy Beat - Sax 'y 99
TTITLE8=Tomcraft Vs. Housepunk - Punk Da Funk
TTITLE9=Kaylab - Lärm Macht Krank
TTITLE10=Venus Project Feat. Ely - People
TTITLE11=Boney M, Horny United - Ma Baker, Somebody Scream
TTITLE12=Salt 'n Pepa - Push It (Again)
TTITLE13=X-Treme - Love Song
EXTD=
EXTT0=
EXTT1=
EXTT2=
EXTT3=
EXTT4=
EXTT5=
EXTT6=
EXTT7=
EXTT8=
EXTT9=
EXTT10=
EXTT11=
EXTT12=
EXTT13=
PLAYORDER=
